<svg id="Layer_1" data-name="Layer 1" xmlns="http://www.w3.org/2000/svg" viewBox="0 0 607.57 131.54"><defs><style>.cls-1{fill:#1ecad3;}.cls-2{fill:#fff;}</style></defs><path class="cls-1" d="M568.12,80.17c3.49-6,5.75-12.27,5.75-19.83,0-4.06-.88-16-10-23.7a31.56,31.56,0,0,0-21.57-7.23c-3.52,0-17.64.19-26.81,12.85s-5.23,30.29.33,37.91h-8.59V90.25h24.62V82.56a31.61,31.61,0,0,1-2.9-2.39,27,27,0,0,1-8.55-20.41c0-7.88,5.46-20.35,21.9-20.35,7.16,0,21.11,3.44,21.11,20,0,10.06-4.27,16.66-8.57,20.75a29.09,29.09,0,0,1-2.94,2.45v7.63H576V80.17Z"/><path class="cls-2" d="M541.59,131.54A65.85,65.85,0,0,1,491,23.33a2.31,2.31,0,0,1,3.56,3A61.31,61.31,0,1,0,602.94,65.57c0-33.61-27.59-60.94-61.49-60.94a61.91,61.91,0,0,0-40.22,15.15,2.31,2.31,0,1,1-3-3.51A66.54,66.54,0,0,1,541.45,0c36.46,0,66.12,29.41,66.12,65.57A66,66,0,0,1,541.59,131.54Z"/><path class="cls-2" d="M541.59,119.89a54.32,54.32,0,1,1,41.51-19.27,2.32,2.32,0,0,1-3.54-3,49.7,49.7,0,1,0-38,17.63,49.19,49.19,0,0,0,30.71-10.62,2.31,2.31,0,1,1,2.86,3.64A53.74,53.74,0,0,1,541.59,119.89Z"/><path class="cls-2" d="M38.53,73.66a20.39,20.39,0,0,1-4.31,6.4,20.15,20.15,0,0,1-6.39,4.3A19.61,19.61,0,0,1,20,85.94a19.38,19.38,0,0,1-7.77-1.58A20.1,20.1,0,0,1,1.58,73.66a20,20,0,0,1,4.3-22,20.57,20.57,0,0,1,6.37-4.28A19.37,19.37,0,0,1,20,45.84a19.6,19.6,0,0,1,7.81,1.57,20.43,20.43,0,0,1,6.39,4.28,19.92,19.92,0,0,1,4.31,6.37,20.16,20.16,0,0,1,0,15.6Zm-7.15-19.1A15.45,15.45,0,0,0,20,49.85a15.42,15.42,0,0,0-11.3,4.71,16,16,0,0,0,0,22.66A15.41,15.41,0,0,0,20,81.92a15.45,15.45,0,0,0,11.36-4.7,16,16,0,0,0,0-22.66Z"/><path class="cls-2" d="M98.62,57.71,86.92,87.78,75.15,57.71l-6,27.77H65l9.12-41.6,12.8,33.4,12.79-33.4,9.07,41.6H104.7Z"/><path class="cls-2" d="M135.39,85.48v-39h23.18V50.2H139.41V64.08H158v3.79H139.41V81.75h19.16v3.73Z"/><path class="cls-2" d="M227,69.65a18.82,18.82,0,0,1-6.95,11.7,19.82,19.82,0,0,1-12.78,4.59,19.61,19.61,0,0,1-7.81-1.58,20,20,0,0,1-10.7-10.7,20.19,20.19,0,0,1,0-15.66,20,20,0,0,1,10.7-10.7,18.66,18.66,0,0,1,7.4-1.58,20.23,20.23,0,0,1,12.37,4,19.8,19.8,0,0,1,7.31,10.43h-4.24a16.07,16.07,0,0,0-5.94-7.56A16.06,16.06,0,0,0,191.21,65.8a15.58,15.58,0,0,0,4.69,11.37,15.37,15.37,0,0,0,11.38,4.75,16.47,16.47,0,0,0,15.66-11.18H207.1v-3.5h20.31Z"/><path class="cls-2" d="M281.51,85.48l-4.19-10.61H260.18L256,85.48h-4.36l17.15-41.71,17.1,41.71Zm-5.66-14.34-7.08-18-7.11,18Z"/><path class="cls-2" d="M330.45,81.46v4h-18v-39h4v35Z"/><path class="cls-2" d="M383.8,85.48l-4.19-10.61H362.47l-4.2,10.61h-4.36l17.15-41.71,17.1,41.71Zm-5.66-14.34-7.08-18-7.11,18Z"/><path class="cls-2" d="M439.16,79.17a10.22,10.22,0,0,1-2.93,3.59q-3.56,2.71-9.52,2.72H414.78v-39h10.55q8.58,0,11.13,5.27a8.81,8.81,0,0,1,.92,3.85,11.87,11.87,0,0,1-.31,3.07,9.42,9.42,0,0,1-.92,2.15A7.35,7.35,0,0,1,432.79,64a9.58,9.58,0,0,1,5.45,3.71,11.52,11.52,0,0,1,2,6.94A10,10,0,0,1,439.16,79.17ZM425.33,50.31h-6.54V62.47h7.69a7.6,7.6,0,0,0,5-1.55,5.72,5.72,0,0,0,1.89-4.7Q433.36,50.31,425.33,50.31Zm10.24,20.48a7.41,7.41,0,0,0-1.72-2.26,7.79,7.79,0,0,0-5.36-2h-9.7V81.64h9.07a8.46,8.46,0,0,0,6-2.13,7.36,7.36,0,0,0,2.38-5.68A6.73,6.73,0,0,0,435.57,70.79Z"/></svg>